<svg xmlns="http://www.w3.org/2000/svg" viewBox="0 0 128 128" width="128" height="128">
  <title>CSS3</title>
  <defs>
    <linearGradient id="g" x1="0" y1="0" x2="0" y2="1">
      <stop offset="0" stop-color="#2aa9e0"/>
      <stop offset="1" stop-color="#1572b6"/>
    </linearGradient>
  </defs>
  <path fill="#E0E7FF" d="M19 3h90l-9.4 106.7L63.9 125l-35.6-15.3L19 3z"/>
  <path fill="url(#g)" d="M104.8 10.5L96.7 108.1 64 121.3 31.3 108.1 23.2 10.5h81.6z"/>
  <path fill="#fff" d="M39.6 27.8h48.8l-1.2 13.6H53.2l.8 9.6h32.5l-2.3 26.2L64 84.9l-20.3-7.7-1.2-13.6h12.2l.5 6.1L64 74l9.7-3.5 1-11.4H41.5l-1.9-21.3z"/>
  <path fill="#0F172A" fill-opacity=".1" d="M64 121.3l32.7-13.2 8.1-97.6H64v110.8z"/>
  <rect x="10" y="10" width="108" height="108" rx="18" ry="18" fill="none" stroke="#0f172a" stroke-width="4"/>
</svg>
