<svg xmlns="http://www.w3.org/2000/svg" viewBox="0 0 256 256" width="128" height="128">
  <title>Tailwind CSS</title>
  <rect x="8" y="8" width="240" height="240" rx="40" ry="40" fill="#ffffff" stroke="#0f172a" stroke-width="8"/>
  <path fill="#38BDF8" d="M128 64c-32 0-52.3 16-60.9 48 12.2-16 26.6-22.7 43.2-20.2 9.4 1.4 16.2 7.8 23.4 14.5 12 11.1 25.1 23.1 50.3 23.1 32 0 52.3-16 60.9-48-12.2 16-26.6 22.7-43.2 20.2-9.4-1.4-16.2-7.8-23.4-14.5C166.3 76 153.2 64 128 64zm-64 72c-32 0-52.3 16-60.9 48 12.2-16 26.6-22.7 43.2-20.2 9.4 1.4 16.2 7.8 23.4 14.5 12 11.1 25.1 23.1 50.3 23.1 32 0 52.3-16 60.9-48-12.2 16-26.6 22.7-43.2 20.2-9.4-1.4-16.2-7.8-23.4-14.5C102.3 164 89.2 152 64 152z"/>
</svg>
